<svg width="17" height="20" viewBox="0 0 17 20" fill="none" xmlns="http://www.w3.org/2000/svg">
<path d="M15.1909 19.1028H2.96721C2.33985 19.1028 1.83141 18.5944 1.83141 17.9675V8.22432H16.3266V17.9675C16.3267 18.5944 15.8182 19.1028 15.1909 19.1028Z" fill="#1C1B37" stroke="#0C032F" stroke-width="0.45713"/>
<path d="M1.75498 7.62743L0.840708 4.6182L14.7103 0.406957L15.6246 3.41622L1.75498 7.62743ZM1.83133 8.14109H16.3265V11.2861H1.83133V8.14109Z" fill="white" stroke="#0C032F" stroke-width="0.45713"/>
<path d="M1.83133 8.14088H5.95387L4.07053 11.2858H1.83133V10.3545V8.14088ZM5.69298 6.43154L1.75502 7.62722L1.11478 5.52011L1.11478 5.5201L0.840706 4.61796L2.97665 3.96946L5.69298 6.43154ZM15.245 2.16549L15.2447 2.16558L15.2485 2.17808L15.6246 3.41598L13.6897 4.00346L10.9668 1.53543L14.7911 0.293571L15.245 2.16549ZM11.5121 8.14088L9.62878 11.2858H6.86972L8.75306 8.14088H11.5121ZM16.3265 9.44624V11.2858H12.428L14.3113 8.14088H16.3265V9.44624ZM8.29498 2.35465L11.0113 4.81673L8.37138 5.61828L5.65505 3.1562L8.29498 2.35465Z" fill="#2F274E" stroke="#0C032F" stroke-width="0.45713"/>
<path d="M11.7552 14.6894C12.06 14.8653 12.06 15.3052 11.7552 15.4812L7.98392 17.6585C7.67916 17.8345 7.29822 17.6145 7.29822 17.2626L7.29822 12.9079C7.29822 12.556 7.67916 12.3361 7.98392 12.512L11.7552 14.6894Z" fill="#FEFFFD"/>
</svg>
